<svg xmlns="http://www.w3.org/2000/svg" xmlns:xlink="http://www.w3.org/1999/xlink"><symbol viewBox="0 0 407.605 407.605" id="icon-address"><path d="M203.805 303.26c11.283 0 105.45-116.967 105.45-175.208 0-58.24-47.212-105.452-105.45-105.452-58.242 0-105.453 47.213-105.453 105.452 0 58.24 94.578 175.21 105.453 175.21zm-68.115-178.9c0-37.62 30.494-68.114 68.115-68.114 37.617 0 68.113 30.495 68.113 68.113 0 37.617-30.496 68.113-68.113 68.113-37.62 0-68.115-30.496-68.115-68.114z"/><path d="M391.088 222.666c0-9.713-7.9-17.614-17.613-17.614h-64.223c-1.34 0-2.883-.07-4.58 2.776-3.39 5.688-3.092 5.188-6.273 10.453-1.48 2.45.76 3.28 1.68 3.28h73.397c.588 0 1.104.518 1.104 1.104L391.1 367.39c0 .59-.515 1.106-1.104 1.106H17.616a1.133 1.133 0 0 1-1.105-1.105L33.03 222.667c0-.588.516-1.104 1.105-1.104h72.826c1.5 0 3.874-.872 1.173-5.27-3.17-5.156-1.94-3.645-5.3-9.353-1.25-2.126-2.982-1.89-5.327-1.89H34.133c-9.71 0-17.613 7.902-17.613 17.615L0 367.393c0 9.713 7.902 17.613 17.615 17.613h372.377c9.715 0 17.613-7.9 17.613-17.613l-16.517-144.727z"/></symbol><symbol viewBox="0 0 31.49 31.49" id="icon-arrow"><path d="M21.205 5.007a1.112 1.112 0 0 0-1.587 0 1.12 1.12 0 0 0 0 1.57l8.047 8.048H1.11c-.618 0-1.11.493-1.11 1.112 0 .62.492 1.127 1.11 1.127h26.555l-8.047 8.032c-.43.444-.43 1.16 0 1.587.444.444 1.16.444 1.587 0l9.952-9.952a1.093 1.093 0 0 0 0-1.57l-9.952-9.953z"/></symbol><symbol viewBox="0 0 37.211 37.211" id="icon-clock"><path d="M30.113 33.584c-.29-6.602-2.95-12.352-6.84-14.98 3.89-2.625 6.553-8.376 6.84-14.977.64-.314.992-.657.992-1.02 0-1.44-5.595-2.607-12.5-2.607-6.904 0-12.5 1.167-12.5 2.608 0 .362.354.706.992 1.02.29 6.6 2.95 12.35 6.84 14.978-3.89 2.625-6.552 8.377-6.84 14.978-.638.313-.992.657-.992 1.02 0 1.44 5.596 2.608 12.5 2.608s12.5-1.167 12.5-2.607c0-.365-.353-.71-.992-1.02zM16.26 19.554c.344-.135.577-.518.577-.948 0-.432-.233-.814-.578-.95-4.05-1.59-6.972-6.978-7.436-13.427 2.29.6 5.816.986 9.78.986s7.492-.386 9.782-.987C27.922 10.677 25 16.066 20.95 17.654c-.345.136-.577.52-.577.95 0 .432.232.814.578.95 4.05 1.588 6.972 6.977 7.437 13.426a19.26 19.26 0 0 0-1.2-.27c-1.317-5.335-8.58-10.013-8.58-10.013s-7.264 4.678-8.583 10.013c-.43.084-.83.175-1.2.27.465-6.45 3.387-11.837 7.435-13.425zm2.345-2.177s-1.573-1.237-3.387-3.216c4.938-1.058 8.96-3.402 11.14-6.422-2.327 5.37-7.753 9.64-7.753 9.64z"/></symbol><symbol viewBox="0 0 361.695 361.695" id="icon-direction"><path d="M346.996 71.387l-38.202-31.522c-4.654-3.84-12.41-6.627-18.444-6.627h-74.486s-6.25.188-6.25-6.562V11c0-6.05-4.95-11-11-11h-37c-6.05 0-11 4.95-11 11v16.426c0 6.25-2.607 7.037-3.798 7.65-5.32 2.738-8.968 8.277-8.968 14.66v65.982c0 6.22 3.463 11.637 8.56 14.444 1.305.72 4.205 1.514 4.205 5.264V147.8c0 3-2.75 2.776-2.75 2.776h-76.52c-6.033 0-13.79 2.787-18.444 6.628l-38.202 31.52c-3.68 3.036-5.727 7.387-5.616 11.935.11 4.548 2.367 8.793 6.19 11.648l41.78 31.176c4.716 3.518 12.408 6.072 18.292 6.072h71.607s3.663.62 3.663 4.786v56.345c0 6.05-4.95 11-11 11H103.6c-6.05 0-13.214 4.428-15.92 9.84l-10.16 20.33c-2.706 5.41.03 9.838 6.08 9.838h193.025c6.05 0 8.786-4.428 6.08-9.84l-10.16-20.328c-2.707-5.412-9.87-9.84-15.92-9.84h-36.01c-6.05 0-11-4.95-11-11v-58.18c0-3.332 2.976-3.755 4.337-4.35 5.817-2.55 9.894-8.354 9.894-15.102v-65.98c0-6.84-4.19-12.712-10.14-15.204-1.29-.54-4.092-1.07-4.092-4.57V135.87c0-3.692 4.27-3.65 4.27-3.65h72.466c5.885 0 13.577-2.555 18.29-6.072l41.78-31.177c3.824-2.854 6.08-7.1 6.192-11.646.11-4.55-1.935-8.9-5.616-11.937zm-278.58 156.87l-33.212-24.784s-3.965-3.672.25-7.24c7.308-6.186 29.538-24.373 29.538-24.373 1.268-1.046 4.71-2.283 6.354-2.283h129.268s4.23-.067 4.23 4.767v51.833c0 5.25-5.48 4.38-5.48 4.38H75.344c-1.795 0-5.487-1.226-6.927-2.3zm224.86-117.34c-1.44 1.076-5.13 2.3-6.927 2.3H165.446s-8.6.96-8.6-6.04V59.842c0-8.334 8.267-7.606 8.267-7.606H290.35c1.64 0 5.084 1.237 6.35 2.282 0 0 22.216 18.628 31.545 26.144 2.61 2.104-.575 4.588-.575 4.588l-34.394 25.666z"/></symbol><symbol viewBox="0 0 485.411 485.411" id="icon-email"><path d="M0 81.824v321.763h485.41V81.824H0zm242.708 198.702L43.612 105.69H441.8L242.707 280.527zm-79.31-37.877L23.867 365.177v-245.06l139.53 122.53zm18.084 15.883l61.22 53.762 61.22-53.762L441.924 379.72H43.487l137.995-121.187zm140.526-15.878L461.543 120.12v245.058L322.008 242.655z"/></symbol><symbol viewBox="0 0 486.392 486.392" id="icon-facebook"><path fill-rule="evenodd" d="M243.196 0C108.89 0 0 108.89 0 243.196s108.89 243.196 243.196 243.196 243.196-108.89 243.196-243.196C486.392 108.86 377.502 0 243.196 0zm62.866 243.165l-39.854.03-.03 145.917h-54.69V243.196H175.01v-50.28l36.48-.03-.062-29.61c0-41.04 11.126-65.997 59.43-65.997h40.25v50.31h-25.17c-18.818 0-19.73 7.022-19.73 20.124l-.06 25.17h45.233l-5.318 50.28z"/></symbol><symbol viewBox="0 0 31.363 31.363" id="icon-fax"><path d="M6.875 1.413H24.49V6.47H6.876zM29.838 8.29H1.533C.687 8.29 0 8.977 0 9.82V21.05h4.6v-6.816h22.167v6.816h4.596V9.82c0-.843-.68-1.53-1.525-1.53zM4.35 12.036zm23.733-.744H6.875V9.825h21.208v1.467z"/><path d="M22.463 27.857h-9.866l-3.717.023V16.042H6.657v12.06s-.083 1.85 1.816 1.85H23.13c1.4 0 1.58-1.07 1.58-2.392V16.042H22.49l-.025 11.815z"/><path d="M9.98 19.245h11.208v1.936H9.978zM10.08 23.63h11.213v1.934H10.08z"/></symbol><symbol viewBox="0 0 75.224 75.224" id="icon-labeled"><path d="M66.354 1.832l-16.62-.225a13.858 13.858 0 0 0-1.797-.112c-4.57 0-10.25 1.976-13.41 4.808l-31.62 28.35C-.683 37.87-.99 43.445 2.22 47.04l21.25 23.776a8.732 8.732 0 0 0 6.532 2.912c2.08 0 4.17-.733 5.834-2.226l31.622-28.35c3.588-3.218 6.44-9.797 6.336-14.62l1.43-16.775c-.103-4.823-4.095-9.288-8.87-9.925zm2.187 26.812c.07 3.265-2.16 8.41-4.59 10.586L32.33 67.58a3.48 3.48 0 0 1-2.328.885c-.59 0-1.717-.15-2.617-1.158L6.137 43.53c-1.266-1.417-1.14-3.687.274-4.955l31.622-28.35c2.133-1.91 6.575-3.465 9.905-3.465.4 0 .77.022 1.104.066l16.622.224c2.205.295 4.258 2.592 4.308 4.82l-1.43 16.774zM53.84 12.51c-5.12 0-9.27 4.157-9.27 9.285 0 5.126 4.148 9.283 9.27 9.283 5.12 0 9.268-4.157 9.268-9.283-.002-5.128-4.15-9.285-9.268-9.285zm0 13.304a4.023 4.023 0 0 1-4.016-4.02c0-2.217 1.803-4.02 4.016-4.02s4.014 1.804 4.014 4.02c0 2.217-1.8 4.02-4.014 4.02z"/></symbol><symbol viewBox="0 0 31.464 31.463" id="icon-library"><path d="M30.218 7.01V5.028l-.284-.112c-.1-.04-2.427-.943-5.533-.943-3.327 0-6.194 1.015-8.526 3.015-2.333-2-5.2-3.015-8.527-3.015-3.108 0-5.436.904-5.533.943l-.287.112v1.836C.587 7.04 0 7.354 0 7.87v18.917h13.933c.482.43 1.187.703 1.975.703.787 0 1.492-.272 1.974-.703h13.582V7.87c0-.42-.474-.692-1.246-.86zM15.722 25.296c-1.157-.48-5.14-1.992-9.13-1.992-1.577 0-2.974.24-4.165.72V5.653c.696-.232 2.588-.78 4.92-.78 3.062 0 5.695.928 7.845 2.733v10.966l.53-.586v7.31zm13.594-1.268c-1.277-.514-2.744-.772-4.37-.772-3.987 0-7.782 1.528-8.923 2.03V17.99l.53.583V7.608c2.148-1.806 4.78-2.732 7.847-2.732 2.322 0 4.22.548 4.916.78v18.372z"/></symbol><symbol viewBox="0 0 219.898 219.898" id="icon-museum"><path d="M33.625 107.097a3.504 3.504 0 0 0-3.504 3.504v67.812a3.507 3.507 0 0 0 3.505 3.504h16.953a3.505 3.505 0 0 0 3.504-3.504v-67.81a3.502 3.502 0 0 0-3.504-3.505H33.625zm13.448 67.81h-9.945v-60.802h9.945v60.802zM101.436 107.097a3.503 3.503 0 0 0-3.504 3.504v67.812a3.506 3.506 0 0 0 3.504 3.504h16.953a3.507 3.507 0 0 0 3.504-3.504v-67.81a3.504 3.504 0 0 0-3.505-3.505h-16.954zm13.45 67.81h-9.946v-60.802h9.945v60.802zM169.25 107.097a3.504 3.504 0 0 0-3.504 3.504v67.812a3.506 3.506 0 0 0 3.504 3.504h16.953a3.504 3.504 0 0 0 3.505-3.504v-67.81a3.5 3.5 0 0 0-3.505-3.505H169.25zm13.445 67.81h-9.94v-60.802h9.944v60.802h-.005zM198.173 100.09V91.61a3.5 3.5 0 0 0-3.504-3.504H25.153a3.504 3.504 0 0 0-3.504 3.504v8.477a3.506 3.506 0 0 0 3.504 3.503h169.52a3.5 3.5 0 0 0 3.5-3.504zm-7.007-3.506H28.66v-1.468h162.51v1.468h-.004zM202.448 69.118H17.378a3.502 3.502 0 0 0-3.503 3.504V81.1a3.505 3.505 0 0 0 3.504 3.503h185.067a3.507 3.507 0 0 0 3.505-3.504v-8.474c0-1.94-1.57-3.508-3.504-3.508zm-3.504 8.477H20.884V76.13h178.06v1.465zM210.83 55.33L111.61.438a3.497 3.497 0 0 0-3.393 0l-99.595 55.1a3.505 3.505 0 0 0-1.697 3.943 3.51 3.51 0 0 0 3.393 2.63H209.51c.025 0 .046-.004.07 0a3.504 3.504 0 0 0 1.25-6.78zM23.89 55.1l86.022-47.59 86.023 47.59H23.89zM21.647 197.404a3.506 3.506 0 0 0 3.504 3.505h169.516a3.505 3.505 0 0 0 3.505-3.506v-8.477a3.504 3.504 0 0 0-3.504-3.504H25.15a3.506 3.506 0 0 0-3.503 3.504v8.477zm7.008-4.97H191.16v1.467H28.656v-1.467zM202.445 204.413H17.38a3.505 3.505 0 0 0-3.505 3.505v8.477a3.505 3.505 0 0 0 3.504 3.504h185.067a3.506 3.506 0 0 0 3.505-3.505v-8.477a3.512 3.512 0 0 0-3.507-3.505zm-3.505 8.477H20.884v-1.468h178.06v1.468h-.004z"/><path d="M95.896 35.872c0 7.73 6.287 14.017 14.017 14.017s14.018-6.287 14.018-14.018c0-7.73-6.286-14.018-14.017-14.018S95.896 28.14 95.896 35.872zm21.025 0c0 3.863-3.143 7.008-7.008 7.008s-7.008-3.145-7.008-7.008c0-3.867 3.143-7.01 7.008-7.01s7.01 3.143 7.01 7.01z"/></symbol><symbol viewBox="0 0 34.482 34.482" id="icon-phone"><path d="M25.043 0H9.44a2.37 2.37 0 0 0-2.365 2.364V32.12A2.37 2.37 0 0 0 9.44 34.48h15.603a2.37 2.37 0 0 0 2.364-2.363V2.363A2.37 2.37 0 0 0 25.043 0zm-12.24 31.76h-2.547a.85.85 0 0 1 0-1.7h2.548a.85.85 0 0 1 0 1.7zm0-3.24h-2.547a.85.85 0 0 1 0-1.7h2.548a.85.85 0 0 1 0 1.7zm0-3.24h-2.547a.85.85 0 0 1 0-1.7h2.548a.85.85 0 0 1 0 1.7zm0-3.24h-2.547a.85.85 0 0 1 0-1.7h2.548a.85.85 0 0 1 0 1.7zm5.712 9.72h-2.547a.85.85 0 0 1 0-1.7h2.547a.85.85 0 0 1 0 1.7zm0-3.24h-2.547a.85.85 0 0 1 0-1.7h2.547a.85.85 0 0 1 0 1.7zm0-3.24h-2.547a.85.85 0 0 1 0-1.7h2.547a.85.85 0 0 1 0 1.7zm0-3.24h-2.547a.85.85 0 0 1 0-1.7h2.547a.85.85 0 0 1 0 1.7zm5.71 9.72h-2.548a.85.85 0 0 1 0-1.7h2.55a.85.85 0 0 1 0 1.7zm0-3.24h-2.548a.85.85 0 0 1 0-1.7h2.55a.85.85 0 0 1 0 1.7zm0-3.24h-2.548a.85.85 0 0 1 0-1.7h2.55a.85.85 0 0 1 0 1.7zm0-3.24h-2.548a.85.85 0 0 1 0-1.7h2.55a.85.85 0 0 1 0 1.7zm.9-3.66H9.356V2.77h15.77v15.61z"/></symbol><symbol viewBox="0 0 339.921 339.921" id="icon-search"><path fill-rule="evenodd" d="M335.165 292.07l-81.385-84.076c-5.836-6.032-13.13-8.447-16.29-5.363-3.17 3.063-10.47.654-16.306-5.378l-1.164-1.207c36.425-47.907 32.89-116.5-10.85-160.24-47.74-47.74-125.143-47.74-172.876 0-47.74 47.74-47.74 125.13 0 172.87 44.486 44.492 114.7 47.472 162.704 9.045l.51.533c5.826 6.032 7.996 13.402 4.815 16.47-3.166 3.067-1.012 10.442 4.83 16.463l81.34 84.11c5.837 6.016 15.453 6.195 21.49.354l22.83-22.088c6.014-5.827 6.177-15.437.352-21.49zm-152.86-110.26c-32.85 32.857-86.31 32.857-119.158.01-32.852-32.85-32.847-86.317 0-119.163 32.847-32.852 86.307-32.847 119.148.005 32.857 32.847 32.857 86.302.01 119.148z"/></symbol><symbol viewBox="0 0 49.652 49.652" id="icon-twitter"><path d="M24.826 0C11.136 0 0 11.137 0 24.826c0 13.688 11.137 24.826 24.826 24.826 13.688 0 24.826-11.138 24.826-24.826C49.652 11.136 38.516 0 24.826 0zM35.9 19.144c.012.246.018.494.018.742 0 7.55-5.746 16.255-16.26 16.255-3.226 0-6.23-.942-8.758-2.564.447.053.902.08 1.363.08 2.678 0 5.14-.914 7.097-2.446a5.72 5.72 0 0 1-5.338-3.97 5.76 5.76 0 0 0 2.58-.095 5.715 5.715 0 0 1-4.583-5.603v-.072a5.69 5.69 0 0 0 2.587.714 5.71 5.71 0 0 1-2.54-4.755c0-1.05.28-2.03.772-2.875a16.225 16.225 0 0 0 11.776 5.972 5.707 5.707 0 0 1-.147-1.303 5.714 5.714 0 0 1 9.883-3.91 11.406 11.406 0 0 0 3.63-1.387 5.74 5.74 0 0 1-2.516 3.162 11.36 11.36 0 0 0 3.282-.9 11.494 11.494 0 0 1-2.85 2.954z"/></symbol><symbol viewBox="0 0 97.75 97.75" id="icon-youtube"><path d="M25.676 52.482h3.875v20.973h3.667V52.482h3.947v-3.435H25.676zM56.674 55.046c-1.212 0-2.343.662-3.406 1.972v-7.972h-3.295v24.41h3.295v-1.763c1.103 1.36 2.233 2.013 3.406 2.013 1.31 0 2.193-.69 2.633-2.044.22-.77.334-1.982.334-3.665v-7.242c0-1.722-.112-2.924-.333-3.655-.44-1.364-1.323-2.054-2.633-2.054zm-.33 13.21c0 1.643-.482 2.453-1.434 2.453-.54 0-1.092-.26-1.643-.812V58.814c.55-.545 1.102-.803 1.643-.803.95 0 1.434.843 1.434 2.483v7.762zM43.824 69.167c-.73 1.033-1.422 1.542-2.084 1.542-.44 0-.69-.26-.77-.772-.03-.106-.03-.508-.03-1.28v-13.39h-3.297v14.38c0 1.284.11 2.152.29 2.704.332.922 1.064 1.354 2.124 1.354 1.213 0 2.457-.732 3.767-2.234v1.984h3.298V55.268h-3.298v13.9zM46.653 38.466c1.073 0 1.588-.85 1.588-2.55v-7.732c0-1.7-.514-2.548-1.587-2.548-1.074 0-1.59.848-1.59 2.548v7.73c0 1.702.516 2.552 1.59 2.552z"/><path d="M48.875 0C21.882 0 0 21.882 0 48.875S21.882 97.75 48.875 97.75 97.75 75.868 97.75 48.875 75.868 0 48.875 0zm5.436 22.86h3.322v13.532c0 .78 0 1.186.04 1.295.073.516.335.78.78.78.667 0 1.366-.516 2.105-1.56V22.86h3.33v18.38h-3.33v-2.005c-1.326 1.52-2.59 2.257-3.805 2.257-1.072 0-1.812-.435-2.146-1.365-.184-.557-.295-1.436-.295-2.733V22.86zm-12.577 5.993c0-1.965.334-3.4 1.042-4.33.92-1.257 2.218-1.885 3.878-1.885 1.668 0 2.964.628 3.885 1.885.698.928 1.032 2.365 1.032 4.33v6.436c0 1.953-.334 3.402-1.032 4.32-.92 1.255-2.217 1.882-3.885 1.882-1.66 0-2.957-.627-3.878-1.88-.708-.92-1.042-2.37-1.042-4.323v-6.437zm-8.906-12.277l2.622 9.685 2.518-9.684h3.735L37.26 31.25v9.99h-3.692v-9.99c-.335-1.77-1.074-4.362-2.26-7.802-.777-2.29-1.588-4.585-2.366-6.872h3.885zm42.36 58.485c-.67 2.9-3.04 5.04-5.895 5.36-6.763.754-13.604.758-20.42.754-6.813.004-13.658 0-20.42-.755-2.854-.32-5.226-2.46-5.892-5.36-.95-4.128-.95-8.637-.95-12.89s.01-8.76.96-12.89c.668-2.9 3.038-5.04 5.893-5.357 6.762-.755 13.606-.76 20.42-.755 6.814-.004 13.658 0 20.42.755 2.855.32 5.227 2.458 5.896 5.358.947 4.13.94 8.64.94 12.89s-.003 8.762-.954 12.89z"/><path d="M67.17 55.046c-1.686 0-2.995.62-3.947 1.864-.7.92-1.018 2.342-1.018 4.285v6.37c0 1.934.357 3.366 1.06 4.277.95 1.242 2.263 1.863 3.987 1.863 1.72 0 3.072-.65 3.984-1.972.4-.584.66-1.245.77-1.975.03-.33.07-1.06.07-2.124v-.48h-3.36c0 1.32-.044 2.054-.073 2.233-.188.88-.662 1.32-1.473 1.32-1.132 0-1.686-.84-1.686-2.52V64.96h6.592v-3.767c0-1.943-.33-3.365-1.02-4.285-.92-1.242-2.232-1.862-3.886-1.862zm1.612 7.172h-3.296v-1.683c0-1.682.553-2.523 1.654-2.523 1.09 0 1.642.842 1.642 2.523v1.683z"/></symbol></svg>